mtllib materials.mtl
v -0.03999996 -0.1983331 -0.04666668
v 0.04000002 -0.1983331 -0.04666668
v 0.04000008 0.1516668 -0.04666668
v -0.0399999 0.1516668 -0.04666668
v -0.03999996 -0.1983331 0.03333336
v -0.0399999 0.1516668 0.03333336
v 0.04000008 0.1516668 0.03333336
v 0.04000002 -0.1983331 0.03333336
v 0.13 -0.0183332 0.03333336
v 0.13 0.06166673 0.03333336
v 0.13 0.06166673 -0.04666662
v 0.13 -0.0183332 -0.04666662
v -0.13 -0.0183332 0.0333333
v -0.13 -0.0183332 -0.04666668
v -0.13 0.06166673 -0.04666668
v -0.13 0.06166673 0.0333333
v 0.14 -0.02500021 0.02333343
v 0.14 0.06833303 0.02333343
v 0.14 0.06833303 -0.0399999
v 0.14 -0.02500021 -0.0399999
v -0.14 -0.02500021 0.02333337
v -0.14 -0.02500021 -0.03999996
v -0.14 0.06833303 -0.03999996
v -0.14 0.06833303 0.02333337
v -0.04666662 -0.2116663 -0.03999996
v 0.04666668 -0.2116664 -0.03999996
v 0.04666674 0.1616669 -0.03999996
v -0.04666656 0.1616669 -0.03999996
v -0.04666662 -0.2116663 0.02333343
v -0.04666656 0.1616669 0.02333343
v 0.04666674 0.1616669 0.02333343
v 0.04666668 -0.2116664 0.02333343
vn 0 0 -1
vn 0 0 -1
vn 0 0 1
vn 0 0 1
vn 0 -1 0
vn 0 -1 0
vn 0 1 0
vn 0 1 0
vn -1 1.70299E-07 0
vn -1 1.70299E-07 0
vn 1 -1.70299E-07 0
vn 1 -1.70299E-07 0
vn 1 0 0
vn 1 0 0
vn -1 0 0
vn -1 0 0
vn -2.292486E-07 0 1
vn -2.292486E-07 0 1
vn 2.292486E-07 0 -1
vn 2.292486E-07 0 -1
vn 0 -1 0
vn 0 -1 0
vn 0 1 0
vn 0 1 0
vn 1 0 0
vn 1 0 0
vn -1 0 0
vn -1 0 0
vn -2.128738E-07 0 1
vn -2.128738E-07 0 1
vn 2.128738E-07 0 -1
vn 2.128738E-07 0 -1
vn 0 -1 0
vn 0 -1 0
vn 0 1 0
vn 0 1 0
vn 0 0 -1
vn 0 0 -1
vn 0 0 1
vn 0 0 1
vn -6.386214E-07 -1 0
vn -6.386214E-07 -1 0
vn 0 1 0
vn 0 1 0
vn -1 1.596554E-07 0
vn -1 1.596554E-07 0
vn 1 -1.596553E-07 0
vn 1 -1.596553E-07 0
vt 0.4436511 0.4834531
vt 0.4454399 0.4870308
vt 0.4297875 0.494857
vt 0.4436511 0.4834531
vt 0.4297875 0.494857
vt 0.4279986 0.4912793
vt 0.5563489 0.4834531
vt 0.5720014 0.4912793
vt 0.5702125 0.494857
vt 0.5563489 0.4834531
vt 0.5702125 0.494857
vt 0.5545601 0.4870308
vt 0.5204493 0.4502222
vt 0.5242162 0.4488769
vt 0.5255616 0.4526438
vt 0.5204493 0.4502222
vt 0.5255616 0.4526438
vt 0.5217946 0.4539892
vt 0.4795507 0.4502222
vt 0.4782054 0.4539892
vt 0.4744384 0.4526438
vt 0.4795507 0.4502222
vt 0.4744384 0.4526438
vt 0.4757838 0.4488769
vt 0.4457124 0.514066
vt 0.4355407 0.5283063
vt 0.4322858 0.5259814
vt 0.4457124 0.514066
vt 0.4322858 0.5259814
vt 0.4424574 0.511741
vt 0.5542876 0.514066
vt 0.5575426 0.511741
vt 0.5677142 0.5259814
vt 0.5542876 0.514066
vt 0.5677142 0.5259814
vt 0.5644593 0.5283063
vt 0.5627737 0.5190646
vt 0.5650987 0.5223196
vt 0.5618438 0.5246445
vt 0.5627737 0.5190646
vt 0.5618438 0.5246445
vt 0.5595188 0.5213895
vt 0.4372263 0.5190646
vt 0.4404812 0.5213895
vt 0.4381562 0.5246445
vt 0.4372263 0.5190646
vt 0.4381562 0.5246445
vt 0.4349013 0.5223196
vt 0.5605974 0.4950806
vt 0.5664112 0.4834531
vt 0.5699889 0.4852419
vt 0.5605974 0.4950806
vt 0.5699889 0.4852419
vt 0.5641751 0.4968695
vt 0.4394026 0.4950806
vt 0.4358249 0.4968695
vt 0.4300111 0.4852419
vt 0.4394026 0.4950806
vt 0.4300111 0.4852419
vt 0.4335888 0.4834531
vt 0.5270751 0.4568817
vt 0.5233081 0.458227
vt 0.5189357 0.4459844
vt 0.5270751 0.4568817
vt 0.5189357 0.4459844
vt 0.5227027 0.444639
vt 0.4729249 0.4568817
vt 0.4772973 0.444639
vt 0.4810643 0.4459844
vt 0.4729249 0.4568817
vt 0.4810643 0.4459844
vt 0.4766919 0.458227
vt 0.5621731 0.519084
vt 0.5648856 0.5228814
vt 0.5623087 0.524722
vt 0.5621731 0.519084
vt 0.5623087 0.524722
vt 0.5595963 0.5209246
vt 0.4378269 0.519084
vt 0.4404037 0.5209246
vt 0.4376913 0.524722
vt 0.4378269 0.519084
vt 0.4376913 0.524722
vt 0.4351144 0.5228814
vt 0.5600756 0.4953788
vt 0.5663366 0.4828568
vt 0.5705106 0.4849438
vt 0.5600756 0.4953788
vt 0.5705106 0.4849438
vt 0.5642496 0.4974658
vt 0.4399243 0.4953788
vt 0.4357503 0.4974658
vt 0.4294893 0.4849438
vt 0.4399243 0.4953788
vt 0.4294893 0.4849438
vt 0.4336633 0.4828568
vt 0.5267724 0.4575207
vt 0.5237902 0.4585858
vt 0.5190815 0.4454014
vt 0.5267724 0.4575207
vt 0.5190815 0.4454014
vt 0.5220637 0.4443363
vt 0.4732276 0.4575207
vt 0.4779363 0.4443363
vt 0.4809185 0.4454014
vt 0.4732276 0.4575207
vt 0.4809185 0.4454014
vt 0.4762098 0.4585858
vt 0.4440983 0.4828568
vt 0.4461853 0.4870308
vt 0.4294893 0.4953788
vt 0.4440983 0.4828568
vt 0.4294893 0.4953788
vt 0.4274023 0.4912048
vt 0.5559017 0.4828568
vt 0.5725977 0.4912048
vt 0.5705107 0.4953788
vt 0.5559017 0.4828568
vt 0.5705107 0.4953788
vt 0.5538147 0.4870308
vt 0.520651 0.4497962
vt 0.5236332 0.4487311
vt 0.5252028 0.4531259
vt 0.520651 0.4497962
vt 0.5252028 0.4531259
vt 0.5222206 0.454191
vt 0.479349 0.4497962
vt 0.4777794 0.454191
vt 0.4747972 0.4531259
vt 0.479349 0.4497962
vt 0.4747972 0.4531259
vt 0.4763668 0.4487311
vt 0.4458286 0.5133297
vt 0.4349788 0.5285195
vt 0.432402 0.5266789
vt 0.4458286 0.5133297
vt 0.432402 0.5266789
vt 0.4432518 0.5114892
vt 0.5541714 0.5133297
vt 0.5567482 0.5114892
vt 0.567598 0.5266789
vt 0.5541714 0.5133297
vt 0.567598 0.5266789
vt 0.5650212 0.5285195
o group1172049869
g mesh1172049869
usemtl mat25
f 3/3/1 2/2/1 1/1/1
f 4/6/2 3/5/2 1/4/2
f 7/9/3 6/8/3 5/7/3
f 8/12/4 7/11/4 5/10/4
f 8/15/5 5/14/5 1/13/5
f 2/18/6 8/17/6 1/16/6
f 7/21/7 3/20/7 4/19/7
f 6/24/8 7/23/8 4/22/8
f 6/27/9 4/26/9 1/25/9
f 5/30/10 6/29/10 1/28/10
f 7/33/11 8/32/11 2/31/11
f 3/36/12 7/35/12 2/34/12
o group229633251
g mesh229633251
usemtl mat25
f 11/39/13 10/38/13 9/37/13
f 12/42/14 11/41/14 9/40/14
f 15/45/15 14/44/15 13/43/15
f 16/48/16 15/47/16 13/46/16
f 16/51/17 13/50/17 9/49/17
f 10/54/18 16/53/18 9/52/18
f 15/57/19 11/56/19 12/55/19
f 14/60/20 15/59/20 12/58/20
f 14/63/21 12/62/21 9/61/21
f 13/66/22 14/65/22 9/64/22
f 15/69/23 16/68/23 10/67/23
f 11/72/24 15/71/24 10/70/24
o group2083030800
g mesh2083030800
usemtl mat12
f 19/75/25 18/74/25 17/73/25
f 20/78/26 19/77/26 17/76/26
f 23/81/27 22/80/27 21/79/27
f 24/84/28 23/83/28 21/82/28
f 24/87/29 21/86/29 17/85/29
f 18/90/30 24/89/30 17/88/30
f 23/93/31 19/92/31 20/91/31
f 22/96/32 23/95/32 20/94/32
f 22/99/33 20/98/33 17/97/33
f 21/102/34 22/101/34 17/100/34
f 23/105/35 24/104/35 18/103/35
f 19/108/36 23/107/36 18/106/36
o group1875935545
g mesh1875935545
usemtl mat12
f 27/111/37 26/110/37 25/109/37
f 28/114/38 27/113/38 25/112/38
f 31/117/39 30/116/39 29/115/39
f 32/120/40 31/119/40 29/118/40
f 32/123/41 29/122/41 25/121/41
f 26/126/42 32/125/42 25/124/42
f 31/129/43 27/128/43 28/127/43
f 30/132/44 31/131/44 28/130/44
f 30/135/45 28/134/45 25/133/45
f 29/138/46 30/137/46 25/136/46
f 31/141/47 32/140/47 26/139/47
f 27/144/48 31/143/48 26/142/48
