mtllib materials.mtl
v -0.03999996 -0.1983331 -0.04666668
v 0.04000002 -0.1983331 -0.04666668
v 0.04000008 0.1516668 -0.04666668
v -0.0399999 0.1516668 -0.04666668
v -0.03999996 -0.1983331 0.03333336
v -0.0399999 0.1516668 0.03333336
v 0.04000008 0.1516668 0.03333336
v 0.04000002 -0.1983331 0.03333336
v 0.13 -0.0183332 0.03333336
v 0.13 0.06166673 0.03333336
v 0.13 0.06166673 -0.04666662
v 0.13 -0.0183332 -0.04666662
v -0.13 -0.0183332 0.0333333
v -0.13 -0.0183332 -0.04666668
v -0.13 0.06166673 -0.04666668
v -0.13 0.06166673 0.0333333
v 0.14 -0.02500021 0.02333343
v 0.14 0.06833303 0.02333343
v 0.14 0.06833303 -0.0399999
v 0.14 -0.02500021 -0.0399999
v -0.14 -0.02500021 0.02333337
v -0.14 -0.02500021 -0.03999996
v -0.14 0.06833303 -0.03999996
v -0.14 0.06833303 0.02333337
v -0.04666662 -0.2116663 -0.03999996
v 0.04666668 -0.2116664 -0.03999996
v 0.04666674 0.1616669 -0.03999996
v -0.04666656 0.1616669 -0.03999996
v -0.04666662 -0.2116663 0.02333343
v -0.04666656 0.1616669 0.02333343
v 0.04666674 0.1616669 0.02333343
v 0.04666668 -0.2116664 0.02333343
vn 2.04891E-08 2.554466E-09 -1
vn -2.048912E-08 4.390677E-10 1
vn -2.293274E-07 -1 6.494738E-15
vn 1.739139E-07 1 1.110655E-16
vn -1 1.695237E-07 -7.317488E-09
vn 1 -1.748456E-07 3.060054E-08
vn 1 5.273612E-16 1.792694E-07
vn -1 -8.160154E-15 -2.432979E-07
vn -2.249937E-07 -7.522353E-09 1
vn 2.249937E-07 7.522353E-09 -1
vn 1.486554E-09 -1 -2.048912E-08
vn -6.411836E-09 1 2.048912E-08
vn 1 -1.459233E-14 -6.572969E-08
vn -1 -3.035921E-14 -5.476831E-07
vn -2.147594E-07 -8.657601E-09 1
vn 1.748456E-07 -1.365623E-07 -1
vn 5.085978E-09 -1 6.485926E-07
vn -1.584955E-09 1 4.689942E-07
vn -1.192093E-07 1.071495E-09 -1
vn -5.322172E-10 1.348277E-09 1
vn -3.388142E-07 -1 2.352814E-07
vn -1.83094E-08 1 7.058441E-07
vn -1 1.648671E-07 2.232092E-07
vn 1 -1.648671E-07 -4.674823E-08
vt -0.1126978 -0.0330938
vt -0.1091201 -0.02593839
vt -0.1404251 -0.01028591
vt -0.1440028 -0.01744132
vt 0.1126978 -0.0330938
vt 0.1440028 -0.01744132
vt 0.1404251 -0.01028591
vt 0.1091201 -0.02593839
vt 0.04089849 -0.0995556
vt 0.04843243 -0.1022463
vt 0.05112312 -0.09471235
vt 0.04358918 -0.09202166
vt -0.04089849 -0.09955559
vt -0.04358918 -0.09202165
vt -0.05112312 -0.09471235
vt -0.04843243 -0.1022463
vt -0.1085753 0.02813194
vt -0.1289186 0.0566126
vt -0.1354285 0.0519627
vt -0.1150851 0.02348203
vt 0.1085753 0.02813194
vt 0.1150851 0.02348203
vt 0.1354285 0.0519627
vt 0.1289186 0.0566126
vt 0.1255475 0.03812919
vt 0.1301974 0.04463905
vt 0.1236875 0.04928895
vt 0.1190376 0.0427791
vt -0.1255475 0.03812917
vt -0.1190376 0.04277908
vt -0.1236875 0.04928894
vt -0.1301974 0.04463903
vt 0.1211949 -0.009838681
vt 0.1328224 -0.03309379
vt 0.1399778 -0.02951608
vt 0.1283503 -0.006260975
vt -0.1211949 -0.009838683
vt -0.1283503 -0.006260977
vt -0.1399778 -0.02951608
vt -0.1328224 -0.03309379
vt 0.05415016 -0.08623665
vt 0.04661622 -0.08354596
vt 0.03787147 -0.1080313
vt 0.0454054 -0.1107219
vt -0.05415016 -0.08623665
vt -0.0454054 -0.1107219
vt -0.03787147 -0.1080313
vt -0.04661622 -0.08354596
vt 0.1243462 0.03816795
vt 0.1297711 0.04576279
vt 0.1246174 0.04944397
vt 0.1191926 0.04184913
vt -0.1243463 0.03816782
vt -0.1191926 0.041849
vt -0.1246175 0.04944384
vt -0.1297712 0.04576266
vt 0.1201513 -0.009242414
vt 0.1326733 -0.03428637
vt 0.1410213 -0.03011238
vt 0.1284993 -0.005068424
vt -0.1201513 -0.009242419
vt -0.1284993 -0.005068429
vt -0.1410213 -0.03011239
vt -0.1326733 -0.03428638
vt 0.05354484 -0.08495858
vt 0.04758048 -0.08282845
vt 0.03816306 -0.1091972
vt 0.04412743 -0.1113274
vt -0.05354469 -0.08495857
vt -0.04412726 -0.1113273
vt -0.03816289 -0.1091972
vt -0.04758032 -0.08282844
vt -0.1118034 -0.03428638
vt -0.1076294 -0.0259384
vt -0.1410214 -0.009242417
vt -0.1451954 -0.0175904
vt 0.1118034 -0.03428636
vt 0.1451954 -0.01759039
vt 0.1410214 -0.009242406
vt 0.1076294 -0.02593838
vt 0.04130212 -0.1004076
vt 0.04726649 -0.1025378
vt 0.05040563 -0.0937482
vt 0.04444126 -0.09161807
vt -0.041302 -0.1004076
vt -0.04444114 -0.09161801
vt -0.05040551 -0.09374814
vt -0.04726637 -0.1025377
vt -0.1083428 0.02665951
vt -0.1300423 0.0570389
vt -0.135196 0.05335772
vt -0.1134964 0.02297834
vt 0.1083428 0.02665948
vt 0.1134964 0.0229783
vt 0.135196 0.05335768
vt 0.1300423 0.05703886
o group1172049869
g mesh1172049869
usemtl mat25
f 4/4/1 3/3/1 2/2/1 1/1/1
f 8/8/2 7/7/2 6/6/2 5/5/2
f 2/12/3 8/11/3 5/10/3 1/9/3
f 6/16/4 7/15/4 3/14/4 4/13/4
f 5/20/5 6/19/5 4/18/5 1/17/5
f 3/24/6 7/23/6 8/22/6 2/21/6
o group229633251
g mesh229633251
usemtl mat25
f 12/28/7 11/27/7 10/26/7 9/25/7
f 16/32/8 15/31/8 14/30/8 13/29/8
f 10/36/9 16/35/9 13/34/9 9/33/9
f 14/40/10 15/39/10 11/38/10 12/37/10
f 13/44/11 14/43/11 12/42/11 9/41/11
f 11/48/12 15/47/12 16/46/12 10/45/12
o group2083030800
g mesh2083030800
usemtl mat12
f 20/52/13 19/51/13 18/50/13 17/49/13
f 24/56/14 23/55/14 22/54/14 21/53/14
f 18/60/15 24/59/15 21/58/15 17/57/15
f 22/64/16 23/63/16 19/62/16 20/61/16
f 21/68/17 22/67/17 20/66/17 17/65/17
f 19/72/18 23/71/18 24/70/18 18/69/18
o group1875935545
g mesh1875935545
usemtl mat12
f 28/76/19 27/75/19 26/74/19 25/73/19
f 32/80/20 31/79/20 30/78/20 29/77/20
f 26/84/21 32/83/21 29/82/21 25/81/21
f 30/88/22 31/87/22 27/86/22 28/85/22
f 29/92/23 30/91/23 28/90/23 25/89/23
f 27/96/24 31/95/24 32/94/24 26/93/24
