mtllib materials.mtl
v -0.09123892 -0.09606898 -0.02337006
v -0.03973264 -0.06280935 -0.1243257
v -0.1182196 0.02635944 0.02450589
v 0.06717366 -0.09598053 -0.112471
v 0.1134916 0.02244127 -0.07974198
v -0.05947798 -0.1912839 -0.1546524
v -0.06848174 -0.3039911 -0.1823857
v 0.0416835 -0.1928945 -0.1300123
v -0.09527612 -0.1864761 -0.06151431
v -0.06108487 -0.3870497 -0.1675832
v 0.009045601 -0.2796419 -0.148923
v -0.0806126 -0.3066111 -0.09862471
v -0.0391171 -0.5017079 -0.1357196
v -0.01763165 -0.4031645 -0.1408053
v -0.0604105 -0.4032022 -0.1128601
v -0.108974 -0.02070391 0.006082721
v 0.08331853 -0.05546725 -0.09938852
v 0.03468382 -0.01630592 -0.1023192
v -0.08654475 -0.0171845 0.02556568
v -0.1043931 0.04034066 0.06999222
v -0.09532756 0.005086422 0.06396033
v 0.1010796 -0.01975644 -0.09263203
v -0.1398199 0.04605651 0.01653553
v 0.1137267 0.08537531 -0.1185611
v 0.1048449 0.1388627 -0.07309081
v 0.137057 0.05167997 -0.05477631
v 0.1272552 0.09214759 -0.02399559
v -0.06930709 0.08050394 0.06334981
v -0.1057166 0.09593499 0.03156976
v 0.08425772 0.01528549 -0.02676649
v 0.08795923 -0.006781816 -0.05578924
v -0.04402453 -0.01321065 0.01983672
v 0.06144387 0.02930093 -0.1083721
v -0.1048289 0.040259 -0.04851767
v -0.08573598 -0.01122963 -0.03263257
vn -0.8884469 -0.01642459 -0.4586855
vn 0.169218 0.2005088 -0.9649671
vn 0.3741413 -0.3801203 0.8458882
vn 0.3404774 -0.7200764 0.60462
vn -0.2534078 0.7650603 -0.5920027
vn 0.3693521 0.07056793 -0.9266063
vn -0.9276657 0.1574264 -0.3386052
vn 0.4713652 -0.2756122 0.8377666
vn 0.3180291 -0.6435636 0.6961922
vn -0.1523242 0.2648817 -0.9521738
vn -0.9827673 -0.1135204 -0.1458819
vn 0.53666 -0.3674968 0.7595671
vn 0.5350949 -0.4711996 0.7011737
vn 0.9657536 -0.2178359 -0.140952
vn -0.9779302 -0.1925983 -0.0809846
vn 0.5003055 -0.05124919 0.8643309
vn 0.5453707 -0.07582667 0.8347582
vn -0.8919657 0.2089797 -0.4009049
vn 0.4013757 -0.3712031 0.8373207
vn -0.9865085 -0.07554817 -0.1452361
vn 0.4282794 -0.2185776 0.8768128
vn -0.8956811 0.2278095 -0.3819138
vn 0.1695411 0.2016561 -0.9646713
vn 0.1514592 0.2247564 -0.962572
vn 0.5123006 -0.1062554 -0.8522077
vn 0.4660336 -0.1528896 -0.8714571
vn -0.9788423 -0.1998016 -0.04412505
vn 0.546882 -0.008998438 0.8371614
vn 0.4775687 -0.226697 0.8488443
vn -0.4606125 -0.6195995 -0.635557
vn -0.9683735 -0.2343736 -0.08556721
vn 0.4869664 -0.390054 0.7814868
vn -0.4615217 0.5288589 -0.7122542
vn -0.7730021 -0.4301653 0.4662892
vn 0.7332726 -0.2446728 -0.6343868
vn -0.4512431 -0.6289445 0.6330945
vn 0.8762982 -0.2121024 -0.4325667
vn 0.9258435 0.3437208 -0.1570664
vn 0.4533439 -0.2547701 0.8541496
vn -0.6208576 0.6214083 0.4778991
vn 0.1647141 0.7510104 0.6394159
vn -0.4616227 0.5300284 -0.7113188
vn -0.6031671 0.1780544 0.7774871
vn 0.9444661 0.2893088 -0.1558339
vn 0.3759407 -0.5015862 0.7791533
vn 0.458288 0.01902094 0.8886003
vn 0.6550148 -0.5589096 0.5085034
vn 0.2378866 -0.8864964 0.3969057
vn 0.3875042 -0.6004117 0.699533
vn 0.1487789 -0.840234 0.5214133
vn 0.1060586 -0.9892168 0.1010036
vn 0.4522649 -0.03617458 0.8911498
vn -0.06301658 -0.1212459 -0.9906202
vn -0.2660349 0.9369523 -0.2265963
vn -0.8449831 -0.323771 -0.4256476
vn -0.4878836 0.1727057 -0.8556532
vn -0.251805 -0.8942638 -0.3699818
vn -0.7216319 -0.4339929 -0.5393493
vn -0.03143479 -0.1133542 -0.9930573
vn -0.3276491 0.135596 -0.9350186
vn -0.0486587 -0.9716102 0.2315295
vn -0.3346208 -0.3889024 -0.8583611
vn 0.6812507 -0.5798744 0.4468146
vn 0.3735517 -0.7148333 0.591162
vn 0.09692299 0.9344384 0.3426818
vt -0.09636537 0.08528814
vt -0.09314822 0.09665306
vt -0.1096543 0.08715717
vt -0.08729698 0.10685
vt -0.09648289 0.116232
vt -0.09455096 0.09824315
vt 0.08777656 0.111113
vt 0.1092512 0.09628581
vt 0.09816045 0.119149
vt 0.07344405 0.1008671
vt 0.06465585 0.08701814
vt 0.08095951 0.08431859
vt -0.090226 0.07574141
vt -0.07283214 0.08349219
vt -0.0812415 0.09951133
vt -0.07962797 0.113914
vt -0.06892423 0.09044025
vt -0.07264698 0.1065138
vt -0.07248227 0.104816
vt -0.08866031 0.1014444
vt -0.06251987 0.09879261
vt 0.09685089 0.0974986
vt 0.08864835 0.1137175
vt 0.0802689 0.1079484
vt 0.07135363 0.09683215
vt 0.06097443 0.08400676
vt 0.07801616 0.0830292
vt -0.08112182 0.103728
vt -0.06615156 0.08721796
vt -0.07392044 0.09759455
vt -0.06648014 0.07813929
vt -0.07148047 0.07130583
vt -0.06072478 0.07192628
vt 0.07803758 0.1089316
vt 0.07065583 0.1030164
vt 0.07309937 0.09267293
vt 0.06766365 0.1029062
vt 0.05940571 0.09291442
vt 0.07017405 0.09257873
vt 0.033119 0.1156464
vt 0.02732044 0.0936362
vt 0.02996861 0.1033815
vt -0.07276047 0.06133031
vt -0.06377037 0.05701937
vt -0.05412472 0.05331058
vt 0.07596758 0.08996786
vt 0.07389019 0.1003911
vt 0.06396261 0.09252995
vt 0.06405563 0.09237056
vt 0.05615038 0.08608646
vt 0.06634133 0.08780053
vt -0.08908843 0.1030302
vt -0.07996342 0.0993996
vt -0.06293194 0.1005418
vt 0.07936578 0.1061877
vt 0.0865963 0.0926736
vt 0.09593394 0.09571595
vt -0.06463332 0.08256818
vt -0.0816177 0.08086328
vt -0.0699422 0.07597159
vt 0.0758736 0.09145713
vt 0.08823249 0.0941964
vt 0.08093899 0.1076766
vt -0.0877611 0.1045779
vt -0.07154162 0.1077442
vt -0.08260833 0.1152062
vt -0.09456743 0.0981547
vt -0.08340444 0.09083755
vt -0.08731841 0.1067657
vt -0.08791701 0.1055602
vt -0.08372668 0.08970249
vt -0.07347797 0.08418027
vt -0.05819263 0.1185274
vt -0.05771609 0.1020352
vt -0.05049325 0.097613
vt -0.05395277 0.1117988
vt -0.05032702 0.09935357
vt -0.03929088 0.09438896
vt -0.05356504 0.05254246
vt -0.06119476 0.06193561
vt -0.07193924 0.06114454
vt 0.06390484 0.09100798
vt 0.06613644 0.08641129
vt 0.07590323 0.08841529
vt 0.08909591 0.1136748
vt 0.09726865 0.09744087
vt 0.1106085 0.09890278
vt -0.07621308 0.05292317
vt -0.06752221 0.07335745
vt -0.07316379 0.07066523
vt -0.1048711 0.05767035
vt -0.1122932 0.05670745
vt -0.1088201 0.05546166
vt 0.1035778 0.099719
vt 0.09296825 0.1191931
vt 0.09007695 0.1163639
vt -0.1040959 0.09564181
vt -0.09466635 0.1230629
vt -0.1017413 0.1232013
vt 0.1046745 0.03243145
vt 0.1120808 0.03186256
vt 0.1113358 0.03825776
vt -0.02937777 0.1442682
vt -0.02961935 0.1483062
vt -0.03568736 0.1573632
vt 0.1069128 0.02136391
vt 0.09947022 0.02215304
vt 0.09828197 0.01940741
vt 0.002488329 0.1486649
vt 0.006165553 0.1567138
vt -0.001073062 0.1589686
vt 0.09932213 0.05275158
vt 0.09965777 0.04517733
vt 0.1048292 0.04491655
vt 0.1021159 0.1239776
vt 0.1131678 0.0991222
vt 0.1153679 0.1040255
vt 0.001651117 0.1367574
vt 0.00796531 0.1354986
vt 0.001679844 0.1421315
vt 0.0598279 0.07213302
vt 0.05772106 0.09594244
vt 0.05077261 0.09430911
vt -0.1016773 0.1231876
vt -0.1082496 0.1002065
vt -0.1040299 0.09562796
vt 0.06405008 0.1350888
vt 0.06467316 0.1412841
vt 0.06001164 0.143286
vt 0.09760034 0.07065617
vt 0.09762596 0.07779396
vt 0.0905775 0.07716732
vt 0.1113648 0.09908976
vt 0.1035482 0.1191625
vt 0.09837048 0.1192108
vt 0.110695 0.09516323
vt 0.1001108 0.1202214
vt 0.09937251 0.1132627
vt 0.08777194 0.1308683
vt 0.0841765 0.1241328
vt 0.0878318 0.1238708
vt 0.06204387 0.09206098
vt 0.07077672 0.07167619
vt 0.06576715 0.09029578
vt 0.09651835 0.09677056
vt 0.1014493 0.0917883
vt 0.09389497 0.1104644
vt 0.08502495 0.06370668
vt 0.08050538 0.06906487
vt 0.08062402 0.0647577
vt 0.03899298 0.05706491
vt 0.03967436 0.06131951
vt 0.03620469 0.07614397
vt 0.1002867 0.1147603
vt 0.1080576 0.0961733
vt 0.1117063 0.0967219
vt -0.08425166 0.1215583
vt -0.09537627 0.1309142
vt -0.09280746 0.1236191
vt -0.04896232 0.09947988
vt -0.05561633 0.07125659
vt -0.05002136 0.0761141
vt -0.1103213 0.04921434
vt -0.1028946 0.04936341
vt -0.1075693 0.05609369
vt -0.1044597 0.101627
vt -0.09776144 0.113832
vt -0.1007236 0.1182538
vt -0.03311461 0.05508321
vt -0.03404152 0.04119184
vt -0.03186357 0.03712454
vt -0.09535465 0.04659531
vt -0.09541161 0.05120868
vt -0.100964 0.05256886
vt -0.09249358 0.12422
vt -0.08969199 0.1196947
vt -0.08394121 0.122145
vt -0.109252 0.1026718
vt -0.100789 0.118224
vt -0.1036942 0.1253917
vt 0.03976902 0.05460411
vt 0.04606851 0.03331075
vt 0.04851218 0.0350367
vt -0.08732955 0.1064115
vt -0.09530483 0.09060366
vt -0.08968916 0.08953419
vt 0.08428423 0.1328948
vt 0.07702193 0.1278386
vt 0.08076627 0.1261186
vt 0.08658887 0.1065148
vt 0.08293357 0.1067768
vt 0.08888181 0.09276178
vt 0.01456242 0.07476272
vt 0.01617164 0.05328189
vt 0.02098758 0.05168687
o group1035787740
g mesh1035787740
usemtl mat6
f 18/90/30 17/89/30 16/88/30
f 21/93/31 20/92/31 19/91/31
f 17/96/32 22/95/32 19/94/32
f 25/99/33 24/98/33 23/97/33
f 20/102/34 23/101/34 16/100/34
f 24/105/35 22/104/35 17/103/35
f 16/108/36 19/107/36 20/106/36
f 24/111/37 26/110/37 22/109/37
f 27/114/38 26/113/38 24/112/38
f 28/117/39 20/116/39 26/115/39
f 28/120/40 23/119/40 20/118/40
f 27/123/41 25/122/41 29/121/41
f 23/126/42 29/125/42 25/124/42
f 28/129/43 29/128/43 23/127/43
f 24/132/44 25/131/44 27/130/44
f 26/135/45 27/134/45 28/133/45
f 30/138/46 26/137/46 20/136/46
f 30/141/47 31/140/47 26/139/47
f 31/144/48 19/143/48 22/142/48
f 30/147/49 21/146/49 32/145/49
f 19/150/50 32/149/50 21/148/50
f 31/153/51 32/152/51 19/151/51
f 20/156/52 21/155/52 30/154/52
f 33/159/53 24/158/53 17/157/53
f 34/162/54 23/161/54 24/160/54
f 34/165/55 16/164/55 23/163/55
f 33/168/56 18/167/56 35/166/56
f 16/171/57 35/170/57 18/169/57
f 34/174/58 35/173/58 16/172/58
f 17/177/59 18/176/59 33/175/59
f 24/180/60 33/179/60 34/178/60
f 19/183/61 16/182/61 17/181/61
f 35/186/62 34/185/62 33/184/62
f 31/189/63 22/188/63 26/187/63
f 32/192/64 31/191/64 30/190/64
f 29/195/65 28/194/65 27/193/65
o group1688784022
g mesh1688784022
usemtl mat21
f 3/3/1 2/2/1 1/1/1
f 2/6/2 5/5/2 4/4/2
f 5/9/3 3/8/3 4/7/3
f 1/12/4 6/11/4 4/10/4
f 5/15/5 2/14/5 3/13/5
f 8/18/6 7/17/6 4/16/6
f 7/21/7 1/20/7 6/19/7
f 8/24/8 4/23/8 1/22/8
f 9/27/9 7/26/9 8/25/9
f 11/30/10 10/29/10 8/28/10
f 10/33/11 12/32/11 7/31/11
f 12/36/12 11/35/12 8/34/12
f 12/39/13 10/38/13 11/37/13
f 14/42/14 13/41/14 11/40/14
f 13/45/15 15/44/15 12/43/15
f 14/48/16 11/47/16 12/46/16
f 15/51/17 13/50/17 14/49/17
f 7/54/18 9/53/18 1/52/18
f 1/57/19 9/56/19 8/55/19
f 12/60/20 9/59/20 7/58/20
f 8/63/21 9/62/21 12/61/21
f 2/66/22 6/65/22 1/64/22
f 4/69/23 6/68/23 2/67/23
f 7/72/24 6/71/24 4/70/24
f 10/75/25 7/74/25 8/73/25
f 13/78/26 10/77/26 11/76/26
f 12/81/27 10/80/27 13/79/27
f 12/84/28 15/83/28 14/82/28
f 3/87/29 1/86/29 4/85/29
